# xmcd
#
# Track frame offsets: 
#        150
#        21047
#        36430
#        57711
#        76703
#        93903
#        110311
#        126456
#        137458
#        151145
#        165468
#        182490
#
# Disc length: 2710 seconds
#
# Revision: 3
# Processed by: cddbd v1.5.2PL0 Copyright (c) Steve Scherf et al.
# Submitted via: ExactAudioCopy v0.99pb4
#
DISCID=8f0a940c
DTITLE=Andrew Hardin - Just Like This Train
DYEAR=2002
DGENRE=Acoustic
TTITLE0=Last Train from Poor Valley
TTITLE1=Stay Away from Lonely Places
TTITLE2=In Caso Di Nebbia
TTITLE3=Just Like This Train
TTITLE4=Athabasca
TTITLE5=Who's Gonna Help Brother Get Further
TTITLE6=Red Onions
TTITLE7=Corn Pickin'
TTITLE8=Me Japanese Boy I Love You
TTITLE9=South of the Border
TTITLE10=Most of All
TTITLE11=Blue Hawaiian Moonlight
EXTD=
EXTT0=
EXTT1=
EXTT2=
EXTT3=
EXTT4=
EXTT5=
EXTT6=
EXTT7=
EXTT8=
EXTT9=
EXTT10=
EXTT11=
PLAYORDER=
